<svg width="100%" viewBox="0 0 31 29" fill="none" xmlns="http://www.w3.org/2000/svg">
<path d="M17.7084 1.95921C17.0112 0.698017 16.0515 0 15.0018 0C13.952 0 12.9924 0.694051 12.2952 1.95921L0.587357 23.1377C-0.105945 24.3909 -0.188201 25.6006 0.352339 26.5405C0.896797 27.4844 1.98963 28.004 3.42324 28.004H26.5764C28.01 28.004 29.0989 27.4844 29.6473 26.5405C30.1917 25.6045 30.1056 24.3949 29.4123 23.1416L17.7084 1.95921Z" fill="#F24E1E"></path>
<path d="M14.9981 21.3768C14.1481 21.3768 13.4548 22.0748 13.4548 22.9394C13.4548 23.804 14.1442 24.502 14.9981 24.502C15.852 24.502 16.5413 23.804 16.5413 22.9394C16.5413 22.0748 15.852 21.3768 14.9981 21.3768Z" fill="#141313"></path>
<path d="M15.002 19.5564C15.566 19.5564 16.0713 18.8544 16.1222 17.9977L16.7137 7.83683C16.7646 6.98017 16.1105 6.27819 15.2605 6.27819H14.7474C13.8974 6.27819 13.2433 6.98017 13.2942 7.83683L13.8856 17.9977C13.9366 18.8544 14.4379 19.5564 15.0059 19.5564H15.002Z" fill="#141313"></path>
</svg>