<svg width="408" height="137" viewBox="0 0 408 137" fill="none" xmlns="http://www.w3.org/2000/svg">
<rect x="2.45703" y="70.5" width="313.086" height="64" fill="#F24E1E" fill-opacity="0.2" stroke="#F24E1E"/>
<rect x="0.5" y="68.5" width="3.89231" height="4" fill="white" stroke="#F24E1E"/>
<rect x="0.5" y="132.5" width="3.89231" height="4" fill="white" stroke="#F24E1E"/>
<rect x="313.608" y="132.5" width="3.89231" height="4" fill="white" stroke="#F24E1E"/>
<rect x="313.608" y="68.5" width="3.89231" height="4" fill="white" stroke="#F24E1E"/>
<path d="M332.274 50.6201L333.337 49.6603L332.084 49.6907L326.341 49.5426L322.528 45.7392L321.668 44.85L321.649 46.016L321.52 58.7923L321.5 59.9583L322.266 59.2851L332.274 50.6201Z" fill="#F24E1E" stroke="white" stroke-linecap="square"/>
<path d="M332 20H389V41H332V20Z" fill="#F24E1E"/>
<path d="M338.1 34H341C343.3 34 345 32.6 345 30.1C345 27.7 343.3 26.3 341 26.3H338.2V34H338.1ZM339.6 32.8V27.5H340.9C342.6 27.5 343.4 28.5 343.4 30.1C343.4 31.9 342.6 32.8 340.8 32.8H339.6ZM348.5 34.2C349.9 34.2 350.7 33.4 351.1 32.6L349.9 32.1C349.7 32.6 349.3 33.1 348.5 33.1C347.8 33.1 347.2 32.7 347.2 31.6H351C351.2 29.8 350.2 28.4 348.5 28.4C347 28.4 345.8 29.5 345.8 31.3C345.8 33.1 346.8 34.2 348.5 34.2ZM347.2 30.6C347.3 29.8 347.8 29.4 348.5 29.4C349.2 29.4 349.7 29.8 349.7 30.6H347.2ZM354.3 34.2C355.9 34.2 356.8 33.5 356.8 32.4C356.8 31.3 355.8 30.9 354.8 30.7L354.2 30.5C353.5 30.5 353.3 30.2 353.3 29.9C353.3 29.6 353.6 29.3 354.3 29.3C354.9 29.3 355.3 29.7 355.4 30.2L356.6 29.7C356.3 29.1 355.6 28.4 354.3 28.4C353 28.4 352.1 29 352.1 30.1C352.1 31.1 352.8 31.5 353.8 31.7L354.6 31.8C355.2 32 355.4 32.2 355.4 32.5C355.4 32.9 355 33.2 354.4 33.2C353.4 33.2 353.1 32.5 353.1 32.2L351.8 32.6C352.1 33.6 353.1 34.2 354.3 34.2ZM357.9 27.7H359.3V26.3H358V27.7H357.9ZM357.9 34H359.3V28.5H358V34H357.9ZM361.9 36.1H364.5C365.5 36.1 366.4 35.6 366.4 34.5C366.4 33.6 365.6 32.9 364.5 32.9H362.1C361.8 32.9 361.6 32.9 361.6 32.6C361.6 32.4 361.8 32.3 362.1 32.2L363.1 32.4C364.4 32.4 365.3 31.6 365.5 30.4V30.2C365.5 29.7 365.7 29.6 366.1 29.6H366.6V28.6H366C365.3 28.6 365.1 28.8 365 29.4C364.8 28.8 364 28.4 363 28.4C361.7 28.4 360.7 29.2 360.7 30.4C360.7 31 361 31.4 361.3 31.8C360.9 32 360.5 32.4 360.5 33C360.5 33.4 360.7 33.7 361 34C360.7 34.1 360.3 34.5 360.3 35C360.3 35.7 360.8 36.1 361.9 36.1ZM363.2 31.4C362.5 31.4 362.2 31 362.2 30.4C362.2 29.8 362.5 29.4 363.2 29.4C363.8 29.4 364.2 29.8 364.2 30.4C364.2 31 363.8 31.4 363.2 31.4ZM362.2 35.1C361.8 35.1 361.5 35 361.5 34.6C361.5 34.3 361.7 34.1 361.8 34H364.3C364.8 34 365 34.2 365 34.5C365 34.9 364.8 35.1 364.3 35.1H362.2ZM367.6 34H368.9V31.5C368.9 30.8 368.9 29.5 370.2 29.5C370.8 29.5 371.2 29.8 371.2 30.7V34H372.5V30.4C372.5 29.2 372 28.4 370.6 28.4C370.254 28.4056 369.916 28.5006 369.618 28.6759C369.32 28.8511 369.073 29.1006 368.9 29.4V28.5H367.6V34ZM376.4 34.2C377.8 34.2 378.6 33.4 378.9 32.6L377.7 32.1C377.5 32.6 377.2 33.1 376.4 33.1C375.7 33.1 375.1 32.7 375 31.6H379C379.2 29.8 378.2 28.4 376.4 28.4C374.9 28.4 373.8 29.5 373.8 31.3C373.8 33.1 374.8 34.2 376.5 34.2H376.4ZM375 30.6C375 29.8 375.6 29.4 376.2 29.4C376.9 29.4 377.4 29.8 377.5 30.6H375ZM380 34H381.4V31.7C381.4 30.3 381.9 29.7 383.1 29.7L383.7 29.8V28.5H383.3C382.9 28.4867 382.504 28.5939 382.166 28.8079C381.827 29.0219 381.56 29.3327 381.4 29.7V28.5H380.1V34H380Z" fill="white"/>
</svg>
