<svg width="118" height="122" viewBox="0 0 118 122" fill="none" xmlns="http://www.w3.org/2000/svg">
<path d="M66.813 72H50.461V67.072C60.093 61.536 61.821 59.456 61.821 56.544C61.821 54.432 60.413 53.12 58.525 53.12C55.677 53.12 55.005 55.68 54.941 57.824L50.301 57.088C50.397 53.184 52.925 49.088 58.685 49.088C63.773 49.088 66.717 52 66.717 56.128C66.717 58.208 66.077 59.936 64.861 61.44C62.973 63.808 59.325 65.632 54.077 68.192L55.005 69.824C56.349 68.864 57.853 67.968 61.213 67.968H66.813V72Z" fill="white"/>
<path fill-rule="evenodd" clip-rule="evenodd" d="M87.8296 99.7321C96.8148 95.5591 103.121 87.9473 105.733 73.8843C109.168 55.3922 102.823 41.0391 92.1967 31.2763C81.5348 21.4802 66.5367 16.2898 52.7322 16.2898C38.8576 16.2898 28.432 19.7822 21.4725 26.5673C14.5176 33.3481 10.8624 43.5756 10.8621 57.3946C10.8621 69.694 14.5108 81.5413 21.5533 90.2924C28.5769 99.02 39.01 104.716 52.7322 104.716C66.7763 104.716 78.7314 103.958 87.8296 99.7321ZM52.7322 105.716C80.7933 105.716 101.393 102.727 106.716 74.067C113.719 36.3643 80.7933 15.2898 52.7322 15.2898C24.6711 15.2898 9.86268 29.4189 9.86206 57.3946C9.86206 82.3652 24.6711 105.716 52.7322 105.716Z" fill="#F24E1E"/>
<path fill-rule="evenodd" clip-rule="evenodd" d="M15.7029 93.5235C18.7543 97.1208 23.4531 99.6507 30.4425 100.539C49.4317 102.954 65.285 101.54 77.4649 96.3136C89.6083 91.103 98.1588 82.081 102.564 69.114C107.01 56.0248 107.031 45.0705 102.809 36.33C98.59 27.5936 90.0341 20.8651 76.8907 16.4348C65.1924 12.4919 52.7548 12.1375 42.1748 15.9779C31.6235 19.8079 22.8649 27.8255 18.4679 40.7695C13.9685 54.0148 10.0572 68.2005 10.7773 79.4849C11.136 85.106 12.6393 89.9117 15.7029 93.5235ZM17.5202 40.4501C8.52616 66.927 1.60536 97.8803 30.3142 101.531C68.497 106.386 94.5172 95.9104 103.511 69.4334C112.505 42.9564 103.816 24.4553 77.2124 15.488C53.4666 7.48444 26.5143 13.9731 17.5202 40.4501Z" fill="#F24E1E"/>
</svg>
