<svg width="118" height="122" viewBox="0 0 118 122" fill="none" xmlns="http://www.w3.org/2000/svg">
<path d="M57.5228 72.512C52.4668 72.512 49.4908 69.92 48.8508 65.6L53.6188 64.608C53.9068 67.104 55.2188 68.544 57.5228 68.544C59.6668 68.544 61.0428 67.456 61.0428 65.504C61.0428 63.872 59.8588 62.592 57.6188 62.592H55.4428V58.784H57.5228C59.2508 58.784 60.6588 57.696 60.6588 55.872C60.6588 54.144 59.2508 53.056 57.5228 53.056C55.6348 53.056 54.4188 54.368 54.2908 56.512L49.6508 55.776C50.0348 52.096 52.6908 49.088 57.5228 49.088C62.3548 49.088 65.2668 51.744 65.2668 54.848C65.2668 57.984 62.9628 59.424 59.7308 59.616V61.248C63.6988 61.536 65.8108 63.584 65.8108 66.304C65.8108 70.176 62.6428 72.512 57.5228 72.512Z" fill="white"/>
<path d="M106.225 73.9756C103.588 88.1721 97.1943 95.9342 88.0402 100.186C78.8296 104.463 66.7695 105.216 52.7322 105.216C38.8559 105.216 28.2805 99.4492 21.1638 90.6059C14.0376 81.7508 10.3621 69.7869 10.3621 57.3946C10.3624 43.4912 14.0411 33.1143 21.1235 26.2093C28.2081 19.3021 38.7796 15.7898 52.7322 15.7898C66.6497 15.7898 81.7722 21.0193 92.535 30.9081C103.28 40.7802 109.693 55.3039 106.225 73.9756Z" stroke="#F24E1E"/>
<path d="M30.3784 101.035C23.295 100.134 18.4705 97.5599 15.3209 93.8468C12.1652 90.1265 10.6409 85.2042 10.278 79.5176C9.55084 68.1233 13.4959 53.8517 17.9941 40.6098C22.4411 27.5186 31.3137 19.389 42.0046 15.5084C52.7099 11.6225 65.2659 11.9891 77.0516 15.9614C90.2741 20.4184 98.9636 27.2162 103.26 36.1123C107.558 45.0104 107.509 56.1098 103.037 69.2737C98.5865 82.3765 89.9345 91.5065 77.6617 96.7726C65.3707 102.047 49.4187 103.456 30.3784 101.035Z" stroke="#F24E1E"/>
</svg>
