<svg width="118" height="122" viewBox="0 0 118 122" fill="none" xmlns="http://www.w3.org/2000/svg">
<path d="M62.4079 72H57.8639V58.24C57.8639 56.64 58.1839 55.36 58.6959 54.368H56.9039C55.9759 57.088 54.5679 58.944 51.8799 59.04V54.208C54.8559 54.016 57.2879 52.544 58.4719 49.6H62.4079V72Z" fill="white"/>
<path fill-rule="evenodd" clip-rule="evenodd" d="M87.8296 99.7321C96.8148 95.5591 103.121 87.9473 105.733 73.8843C109.168 55.3922 102.823 41.0391 92.1967 31.2763C81.5348 21.4802 66.5367 16.2898 52.7322 16.2898C38.8576 16.2898 28.432 19.7822 21.4725 26.5673C14.5176 33.3481 10.8624 43.5756 10.8621 57.3946C10.8621 69.694 14.5108 81.5413 21.5533 90.2924C28.5769 99.02 39.01 104.716 52.7322 104.716C66.7763 104.716 78.7314 103.958 87.8296 99.7321ZM52.7322 105.716C80.7933 105.716 101.393 102.727 106.716 74.067C113.719 36.3643 80.7933 15.2898 52.7322 15.2898C24.6711 15.2898 9.86268 29.4189 9.86206 57.3946C9.86206 82.3652 24.6711 105.716 52.7322 105.716Z" fill="#F24E1E"/>
<path fill-rule="evenodd" clip-rule="evenodd" d="M15.7031 93.5235C18.7544 97.1208 23.4532 99.6507 30.4426 100.539C49.4318 102.954 65.2851 101.54 77.465 96.3136C89.6084 91.103 98.1589 82.081 102.564 69.114C107.01 56.0248 107.031 45.0705 102.809 36.33C98.5901 27.5936 90.0342 20.8651 76.8909 16.4348C65.1925 12.4919 52.7549 12.1375 42.1749 15.9779C31.6236 19.8079 22.865 27.8255 18.468 40.7695C13.9686 54.0148 10.0573 68.2005 10.7774 79.4849C11.1362 85.106 12.6394 89.9117 15.7031 93.5235ZM17.5204 40.4501C8.52628 66.927 1.60548 97.8803 30.3144 101.531C68.4972 106.386 94.5173 95.9104 103.511 69.4334C112.505 42.9564 103.816 24.4553 77.2125 15.488C53.4667 7.48444 26.5145 13.9731 17.5204 40.4501Z" fill="#F24E1E"/>
</svg>
