<svg width="368" height="424" viewBox="0 0 368 424" fill="none" xmlns="http://www.w3.org/2000/svg">
<path d="M228.4 0.300049C246.7 60.8 294 108.1 354.4 126.3C293.9 144.6 246.6 191.9 228.4 252.3V252.2C210.1 191.8 162.9 144.5 102.5 126.3H102.4C162.9 108.1 210.2 60.8 228.4 0.300049Z" fill="white"/>
<path d="M85.5 225.5C97.8 266.1 129.5 297.9 170.2 310.2C129.6 322.5 97.8 354.2 85.5 394.9C73.2 354.3 41.5 322.6 0.899994 310.3C41.5 297.9 73.2 266.1 85.5 225.5Z" fill="white"/>
<path d="M305.3 300C314.3 329.7 337.5 352.9 367.2 361.9C337.5 370.9 314.3 394.1 305.3 423.8C296.3 394.2 273.1 371 243.5 362C273.1 352.9 296.3 329.6 305.3 300Z" fill="white"/>
</svg>
