<svg width="13" height="14" viewBox="0 0 13 14" fill="none" xmlns="http://www.w3.org/2000/svg">
<path d="M6.0318 1.07276C6.14451 0.573771 6.85549 0.57377 6.9682 1.07276L7.51961 3.51386C7.59266 3.83725 7.96377 3.99097 8.2441 3.81395L10.3601 2.47773C10.7927 2.2046 11.2954 2.70734 11.0223 3.13988L9.68605 5.2559C9.50903 5.53623 9.66275 5.90734 9.98614 5.98039L12.4272 6.5318C12.9262 6.64451 12.9262 7.35549 12.4272 7.4682L9.98614 8.01961C9.66275 8.09266 9.50903 8.46377 9.68605 8.7441L11.0223 10.8601C11.2954 11.2927 10.7927 11.7954 10.3601 11.5223L8.2441 10.186C7.96377 10.009 7.59266 10.1627 7.51961 10.4861L6.9682 12.9272C6.85549 13.4262 6.14451 13.4262 6.0318 12.9272L5.48039 10.4861C5.40734 10.1627 5.03623 10.009 4.7559 10.186L2.63987 11.5223C2.20734 11.7954 1.7046 11.2927 1.97774 10.8601L3.31395 8.7441C3.49097 8.46377 3.33725 8.09266 3.01386 8.01961L0.572758 7.4682C0.0737715 7.35549 0.07377 6.64451 0.572757 6.5318L3.01386 5.98039C3.33725 5.90734 3.49097 5.53623 3.31395 5.2559L1.97774 3.13988C1.7046 2.70734 2.20734 2.2046 2.63988 2.47774L4.7559 3.81395C5.03623 3.99097 5.40734 3.83725 5.48039 3.51386L6.0318 1.07276Z" fill="#F24E1E"/>
</svg>
