<svg width="91" height="29" viewBox="0 0 91 29" fill="none" xmlns="http://www.w3.org/2000/svg">
<path d="M12.59 8.45C12.24 8.37 11.86 8.33 11.16 8.33C7.14 8.33 5.56 10.69 4.71 14.35H2.51C3.4 12.92 4.32 10.57 4.32 8.67H0V27.9H4.67V20.02C4.67 15.04 6.45 13.11 10.5 13.11C10.77 13.11 11.03 13.12 11.3 13.13C11.62 11.94 12.06 10.86 12.59 9.91V8.44V8.45Z" fill="white"/>
<path d="M32.19 16.89C32.19 16.81 32.17 16.73 32.16 16.64C32.14 16.5 32.12 16.37 32.09 16.24C31.45 12.16 28.69 9.73 26.36 6.95C25.24 5.61 23.98 3.96 24.17 2.28C24.31 1.01 24.19 0 23.34 0C22.97 0 22.45 0.2 21.75 0.65C18.18 2.97 19.17 6.63 19.67 8.52C19.7 8.61 19.72 8.71 19.74 8.78C20.12 10.26 19.4 11.08 18.66 11.08C18.08 11.08 17.5 10.58 17.4 9.51C17.38 9.32 17.37 9.13 17.4 8.91C17.43 8.39 17.35 7.97 17.03 7.97C16.86 7.97 16.62 8.09 16.3 8.37C14.57 9.77 12.83 13.13 12.82 16.69C12.76 17.48 12.79 18.25 12.9 19.02C13.22 24.52 17.23 28.49 22.6 28.49C27.02 28.49 30.5 25.93 31.77 21.84C32.11 20.76 32.29 19.57 32.29 18.29C32.29 17.8 32.26 17.33 32.21 16.86L32.19 16.89ZM27.35 18.4C27.35 18.77 27.33 19.13 27.3 19.47H27.32C27.29 19.87 27.24 20.26 27.16 20.61C26.58 23.36 24.86 24.69 22.59 24.69C20.32 24.69 18.47 23.29 17.94 20.39C17.86 19.94 17.8 19.46 17.78 18.94C17.78 18.76 17.76 18.58 17.76 18.4C17.76 17.55 17.84 16.78 17.99 16.08C17.99 16.03 18.02 15.98 18.02 15.94C18.6 13.47 20.11 12.14 22.13 11.97C22.27 11.97 22.43 11.94 22.58 11.94C25.35 11.94 27.28 14.02 27.36 18.14V18.39L27.35 18.4Z" fill="url(#paint0_linear_112_357)"/>
<path d="M50.99 24.21C49.99 24.21 49.83 23.98 49.83 23.05V15.29C49.83 10.58 46.93 8.11 41.64 8.11C36.92 8.11 34.03 10.26 33.08 12.71C32.94 13.07 32.85 13.43 32.79 13.79L33.57 13.99L37.07 14.91C37.53 13.21 38.77 11.67 41.63 11.67C44.1 11.67 45.14 12.83 45.14 14.72V15.38C40.54 15.8 36.21 16.81 34.21 19.42C33.48 20.38 33.05 21.54 33.05 22.99C33.05 23.29 33.08 23.57 33.11 23.84C33.5 26.73 35.87 28.51 39.19 28.51C42.51 28.51 44.4 26.42 45.14 23.91H46.8C46.84 26.84 47.61 27.93 50.78 27.93H52.75V24.35C52.75 24.35 52.7 24.26 52.68 24.22H50.97L50.99 24.21ZM45.16 20C45.16 23.44 43 24.94 40.76 24.94C38.83 24.94 37.86 24.01 37.86 22.55C37.86 19.77 41.22 18.88 45.16 18.46V20Z" fill="white"/>
<path d="M62.99 16.25L60.48 15.79C58.16 15.37 57.58 14.79 57.58 13.67C57.58 12.55 58.55 11.51 60.71 11.51C63.1 11.51 64.38 12.98 64.92 14.44L68.9 12.74C68.09 10.58 65.7 8.11 60.91 8.11C56.12 8.11 53.03 10.5 53.03 14.1C53.03 17.7 55.58 19.12 59.29 19.85L61.88 20.35C64.12 20.77 64.7 21.66 64.7 22.74C64.7 24.05 63.5 24.98 61.26 24.98C57.78 24.98 56.86 22.62 56.59 21.54L52.27 22.93C52.37 23.38 52.53 23.8 52.72 24.2C52.74 24.24 52.77 24.29 52.79 24.33C54.14 26.97 57.37 28.45 61.07 28.45C66.44 28.45 69.57 26.02 69.57 22.27C69.57 18.33 66.02 16.86 63.01 16.25H62.99Z" fill="white"/>
<path d="M79.93 24.09C78.69 24.09 78.15 23.51 78.15 22.28V12.36H83.25V8.69H78.15V2.66H73.44V8.68H69.27V12.35H73.44V23.01C73.44 26.06 75.18 27.91 78.31 27.91H85.84V24.09H79.93Z" fill="white"/>
<path d="M90.66 0.85H85.64V5.68H90.66V0.85Z" fill="white"/>
<path d="M85.84 24.09V27.92H90.55V8.68H85.84V24.09Z" fill="white"/>
<defs>
<linearGradient id="paint0_linear_112_357" x1="45.33" y1="0" x2="45.33" y2="28.51" gradientUnits="userSpaceOnUse">
<stop stop-color="#F24E1E"/>
<stop offset="1" stop-color="white"/>
</linearGradient>
</defs>
</svg>
