<?xml version="1.0" encoding="UTF-8"?>
<svg id="Layer_2" data-name="Layer 2" xmlns="http://www.w3.org/2000/svg" viewBox="0 0 35 35">
  <defs>
    <style>
      .cls-1 {
        fill: #a7ef45;
      }
    </style>
  </defs>
  <g id="Layer_1-2" data-name="Layer 1">
    <path class="cls-1" d="m11.78,35l-.39-.4c-2.37-2.39-3.91-5.41-4.46-8.74l-5.84-.03v-.56c.02-3.37,1.06-6.59,3.03-9.34L0,11.78l.4-.39c2.39-2.37,5.41-3.91,8.74-4.46l.02-5.82h.56c3.37,0,6.59,1.05,9.35,3.01L23.2,0l.39.39c2.38,2.39,3.92,5.4,4.49,8.74l5.83.02v.56c0,3.37-1.05,6.59-3.01,9.35l4.11,4.14-.39.39c-2.39,2.38-5.41,3.92-8.74,4.49l-.04,5.85h-.56c-3.37-.02-6.59-1.06-9.34-3.03l-4.16,4.11ZM2.21,24.72l5.68.03.07.48c.42,3.1,1.75,5.92,3.84,8.19l4.04-3.99.38.29c2.49,1.89,5.42,2.95,8.5,3.07l.03-5.68.48-.07c3.1-.43,5.92-1.76,8.19-3.86l-3.99-4.02.29-.39c1.89-2.49,2.94-5.43,3.06-8.51l-5.66-.02-.07-.48c-.43-3.1-1.76-5.92-3.86-8.18l-4.02,3.99-.39-.29c-2.5-1.89-5.43-2.94-8.52-3.06l-.02,5.66-.48.07c-3.09.43-5.91,1.75-8.18,3.84l3.99,4.04-.29.39c-1.89,2.49-2.95,5.42-3.07,8.5Z"/>
  </g>
</svg>