<svg width="366" height="135" viewBox="0 0 366 135" fill="none" xmlns="http://www.w3.org/2000/svg">
<rect x="2.19238" y="68.5" width="270.615" height="64" fill="#F24E1E" fill-opacity="0.2" stroke="#F24E1E"/>
<rect x="0.5" y="66.5" width="3.23077" height="4" fill="white" stroke="#F24E1E"/>
<rect x="0.5" y="130.5" width="3.23077" height="4" fill="white" stroke="#F24E1E"/>
<rect x="271.269" y="130.5" width="3.23077" height="4" fill="white" stroke="#F24E1E"/>
<rect x="271.269" y="66.5" width="3.23077" height="4" fill="white" stroke="#F24E1E"/>
<path d="M290.274 50.6201L291.337 49.6603L290.084 49.6907L284.341 49.5426L280.528 45.7392L279.668 44.85L279.649 46.016L279.52 58.7923L279.5 59.9583L280.266 59.2851L290.274 50.6201Z" fill="#F24E1E" stroke="white" stroke-linecap="square"/>
<path d="M290 20H321V41H290V20Z" fill="#F24E1E"/>
<path d="M300.378 34H298.948V30.832L296.154 26.3H297.826L298.882 28.082C299.344 28.874 299.399 29.402 299.41 30.128H299.949C299.971 29.402 300.037 28.874 300.488 28.06L301.467 26.3H303.106L300.378 30.81V34ZM305.364 34.165C303.769 34.165 302.592 32.933 302.592 31.261C302.592 29.545 303.758 28.357 305.364 28.357C306.97 28.357 308.125 29.545 308.125 31.261C308.125 32.999 306.959 34.165 305.364 34.165ZM305.364 33.076C306.167 33.076 306.728 32.493 306.728 31.283C306.728 30.062 306.167 29.446 305.364 29.446C304.55 29.446 303.989 30.062 303.989 31.283C303.989 32.493 304.55 33.076 305.364 33.076ZM310.964 34.165C309.831 34.165 309.193 33.373 309.193 32.174V28.522H310.535V31.855C310.535 32.702 310.898 33.032 311.481 33.032C312.526 33.032 312.724 31.976 312.724 31.096V28.522H314.066V34H312.812C312.823 33.626 313.043 33.153 313.329 32.735H312.702C312.438 33.483 311.899 34.165 310.964 34.165Z" fill="white"/>
</svg>
